Patient4_TMGait_0pt2_01_right_15_EMG.mot
version=1
nRows=39
nColumns=33
inDegrees=no
endheader
time	1LAddLong	2LGlutMax	3LGlutMed	4LIliopsoas	5LSemiMemb	6LBicFemLong	7LRecFem	8LVastMed	9LVastLat	10LGasMed	11LTibAnt	12lTibPost	13LPeroneusLong	14LSol	15LExtDigLong	16LFlexDigLong	17RAddLong	18RGlutMax	19RGlutMed	20RIliopsoas	21RSemiMemb	22RBicFemLong	23RRecFem	24RVastMed	25RVastLat	26RGasMed	27RTibAnt	28RTibPost	29RPeroneusLong	30RSol	31RExtDigLong	32RFlexDigLong
34.76	-0.030365	0.067139	0.012665	0.01358	-0.040436	0.043182	0.1239	-0.010223	0.009766	-0.004272	-0.018768	-0.014343	-0.063019	-0.016785	0.11368	-0.038757	0.011749	-0.002747	0.096283	-0.025177	-0.011597	0.20523	0.03067	-0.058136	-0.030518	-0.007324	0.21912	-0.003204	0.13245	0.085754	0.002441	-0.014191
34.761	-0.032806	0.060883	-0.011139	-0.004272	-0.080719	0.008392	0.12619	-0.008545	-0.009308	-0.014038	0.007172	-0.009613	-0.017548	0.043488	0.13336	-0.039368	-0.005341	0.004578	0.13901	-0.070496	0.010681	0.27817	-0.25345	-0.10544	-0.068359	-0.008545	0.19196	-0.00473	-0.30197	0.13016	-0.001068	-0.00473
34.762	-0.015411	0.079193	-0.004272	-0.013123	-0.064392	-0.014343	0.063934	-0.01297	0.005798	-0.002289	-0.055389	-0.023956	-0.018768	-0.009918	0.093689	-0.049438	0.000916	0.034637	0.11276	-0.039063	0.017853	0.2536	-0.32349	-0.10208	-0.09079	-0.013428	0.15198	-0.011444	-0.1564	0.09079	0.000305	-0.010223
34.763	0.00412	0.076599	-0.001068	0.013733	0.00412	-0.065765	0.06134	-0.021973	-0.011139	-0.010376	-0.036316	-0.016632	-0.035858	-0.009766	0.067749	-0.030518	0.010376	0.030823	0.11673	0.014801	0.002136	0.1503	-0.16632	-0.12512	-0.023804	-0.006866	-0.44601	-0.003204	0.15625	0.010529	0.001526	-0.013885
34.764	0.000763	0.054474	-0.016327	0.010834	0.094757	-0.050659	0.030365	-0.016937	-0.014343	-0.014954	-0.026703	-0.0177	-0.053253	-0.015564	0.041809	-0.029907	0.021667	0.043335	0.0737	0.029297	0.004425	0.050507	-0.00824	-0.076599	-0.002441	-0.014038	-0.96313	-0.00351	-0.46814	0.10407	-0.000916	-0.007935
34.765	-0.000458	0.077057	-0.067596	0.009308	0.067291	0.005188	0.046082	-0.018311	-0.066528	-0.018158	-0.01709	-0.018311	-0.075684	0.002289	0.024414	-0.033722	0.010071	-0.006561	0.000305	0.018921	0.014191	-0.018921	0.049438	-0.029907	-0.054474	-0.012817	-0.45914	-0.000763	-0.94116	0.1178	0.000305	-0.006714
34.766	-0.00061	0.055084	-0.069275	0.003052	0.022125	0.003357	0.09491	-0.00946	-0.067749	-0.000763	-0.012512	-0.024261	-0.10727	0.003052	0.048676	-0.028381	0.010071	-0.028839	0.093536	-0.039063	0.037384	0.025024	0.080109	-0.017548	-0.064392	-0.007324	-0.18295	-0.003204	-0.77179	0.14389	0.012207	-0.003204
34.767	-0.001221	0.079193	-0.025635	0.030518	0.016327	0.033722	0.13138	-0.007172	-0.087585	0.005341	-0.039368	-0.0177	-0.09201	0.035248	0.10361	-0.021667	0.005341	0.014191	0.20508	-0.08606	0.02182	-0.097656	0.045166	-0.005951	-0.014191	-0.001068	-0.16846	-0.000916	-0.23132	0.083771	-0.001068	-0.007477
34.768	-0.000153	0.072327	0.045776	0.00473	-0.005188	0.077515	0.12909	-0.011749	-0.09552	0.006256	-0.049591	-0.019226	-0.09491	0.059967	0.068665	-0.025177	0.015259	0.072174	0.31616	-0.09903	-0.013123	-0.12543	-0.19577	-0.05722	0.019531	-0.000916	-0.13107	-0.010681	0.91217	0.12756	0.000763	-0.005035
34.769	-0.003357	0.074158	-0.030518	0.003052	-0.055389	0.09613	0.063171	-0.006561	-0.071411	-0.012817	-0.037994	-0.018005	-0.10712	0.078125	0.027161	-0.021057	0.009308	0.091095	0.10635	-0.068054	-0.10971	-0.16129	-0.31433	-0.084686	0.090942	-0.005798	0.097809	-0.005646	0.39871	0.037689	0.001831	-0.007477
34.77	-0.012054	0.069122	-0.012665	-0.013123	-0.098114	0.085754	0.053253	0.001373	-0.024719	-0.025024	-0.044708	-0.019684	-0.081787	0.086365	0.077362	-0.017242	-0.003357	0.002747	0.063324	-0.11032	-0.027008	-0.18234	-0.16541	-0.10147	0.12894	-0.005951	0.22858	-0.005341	0.18768	-0.005646	0.000153	-0.000763
34.771	-0.00061	0.042877	0.04837	-0.007324	-0.12833	0.023499	0.083313	-0.010986	-0.002899	-0.032806	0.019073	-0.00824	-0.007324	0.089264	0.013275	-0.02182	0.01297	0.011597	-0.014343	-0.063629	0.046082	-0.19058	-0.086823	-0.099182	0.13855	-0.00473	0.24338	-0.002289	0.24017	0.058289	-0.001831	-0.002136
34.772	0.011597	0.027618	0.014954	-0.007172	-0.052338	-0.03067	0.051117	-0.002136	0.023956	-0.013275	0.12299	-0.011902	-0.026855	0.059509	-0.069733	-0.012665	0.012207	0.029144	0.44723	0.021515	0.053711	-0.13596	-0.042419	0.040894	0.15396	-0.004272	0.4274	-0.001678	0.049896	0.038757	0.000763	-0.004272
34.773	0.015106	0.047913	0.035248	-0.002747	0.091858	-0.04303	0.032043	-0.001678	0.079193	-0.010834	0.071259	-0.017853	-0.025177	-0.056	-0.10346	-0.021362	0.001831	0.002899	-0.046844	0.13016	0.082703	-0.057831	-0.005188	-0.056152	0.043488	-0.007172	0.25864	-0.004425	0.074615	0.049591	-0.001678	-0.012512
34.774	0.002289	0.053101	-0.008087	0.001984	0.087891	-0.028229	0.081787	0.002136	0.11459	0.002899	0.02594	-0.00824	-0.055237	-0.032654	-0.044708	-0.014801	0.027313	-0.001678	-0.20355	0.20386	0.076447	0.13168	0.027771	-0.053101	-0.000458	-0.000763	0.30548	-0.003967	0.1062	0.078125	-0.001221	-0.014038
34.775	-0.000916	0.053711	-0.003052	0.007629	0.037994	-0.00412	0.068359	0.007324	0.052643	-0.028229	0.01358	-0.015869	-0.049286	0.032196	-0.00473	-0.003357	0.03891	-0.010681	0.21698	0.20432	0.020599	0.41641	0.11276	-0.048981	0.036469	0.001678	0.14862	-0.000153	-0.009003	0.032654	-0.003967	-0.018005
34.776	-0.000153	0.059814	-0.01709	0.010986	0.033875	-0.015869	-0.010986	-0.001831	0.020752	-0.016174	0.011902	0.003052	-0.036774	0.007324	0.031586	0.000458	0.0354	0.059052	0.12146	0.064087	0.018616	0.24063	0.091858	-0.011902	0.0737	0.003357	0.1471	-0.003357	-0.075073	-0.000305	-0.001984	-0.018005
34.777	0.00412	0.077057	-0.015869	0.010529	0.044556	-0.038452	-0.091553	0.00885	0.023499	-0.008087	0.007629	-0.013275	-0.037537	-0.015564	0.029602	-0.003815	0.009613	-0.017548	0.062408	0.003815	0.015869	0.12131	0.053558	0.018158	0.070038	0.006256	0.12375	0.002594	-0.16281	-0.025024	-0.001831	-0.013428
34.778	0.022888	0.057526	-0.023804	0.007477	0.000153	-0.063324	-0.15274	-0.001221	0.051727	0.021515	0.009613	-0.00351	-0.021362	-0.007935	0.056458	-0.000153	-0.02655	0.054932	-0.26108	-0.067902	-0.11734	0.097046	-0.054474	0.045166	0.088501	0.005035	0.050201	-0.003815	-0.044403	-0.001221	-0.001984	-0.010986
34.779	0.013733	0.067749	-0.019073	0.00351	-0.002289	-0.09079	-0.084534	-0.007477	0.049438	0.016327	0.011749	0.002747	-0.025024	0.016632	0.078583	-0.009918	-0.014801	0.061493	-0.11353	-0.069122	0.011292	0.03891	-0.080719	0.041046	0.048676	0.002441	0.063782	-0.008545	0.028229	-0.017242	0.002594	-0.014496
34.78	0.016937	0.028839	-0.055695	-0.001831	-0.023193	-0.11185	-0.053711	-0.005035	0.029449	0.002747	0.019531	-0.004425	-0.019226	-0.018768	0.066376	0.001221	-0.012512	0.087433	0.53314	-0.056	-0.13382	0.024872	-0.089722	0.04837	0.066528	-0.016937	0.080719	-0.00351	-0.027008	-0.044708	-0.002747	-0.018616
34.781	0.018005	0.039368	-0.10086	0.003967	-0.002136	-0.10101	-0.011292	-0.007019	-0.005493	0.006714	0.02182	0.003815	-0.020752	-0.046234	0.063019	0.005188	-0.000916	0.03479	0.49316	-0.06897	-0.19913	0.046844	-0.006561	0.012512	0.077362	-0.023651	0.11078	-0.010071	-0.038605	-0.066986	-0.00351	-0.014954
34.782	0.018463	0.067749	-0.011444	0.006866	0.007782	-0.10284	-0.002289	-0.009308	-0.014343	-0.00473	0.008392	0.017242	-0.013733	-0.031128	0.048218	0.006409	0.006561	0.035553	0.14999	-0.014191	-0.077667	0.066376	0.0737	-0.028534	0.065155	-0.003967	0.11078	-0.008087	0.002441	-0.045471	-0.004883	-0.010681
34.783	0.026398	0.050049	-0.00473	0.00885	0.032501	-0.020142	0.034637	-0.014496	-0.006256	0.022888	0.016479	0.008087	0.014038	-0.009155	0.012207	0.004272	-0.00351	0.01709	-0.091553	-0.062256	0.15503	0.040588	0.037079	0.00061	0.031128	0.007629	0.085144	-0.014191	0.12695	-0.024109	-0.001373	-0.006714
34.784	0.029602	0.028076	0.007324	0.004883	-0.024719	0.031281	0.016785	-0.009613	0.006561	0.012817	0.005188	0.013885	0.013733	0.002747	-0.001526	0.010071	0.000153	0.031891	0.15656	-0.041504	0.15564	-0.000305	0.010223	-0.007629	0.010071	-0.0177	0.083771	-0.003052	0.086975	-0.016327	-0.001068	-0.008392
34.785	0.045624	0.028839	0.052643	0.000153	-0.042572	0.034637	0.033569	-0.003967	0.025177	0.027466	0.016785	0.010376	0.000458	-0.003204	-0.000458	0.015106	0.007019	0.039673	0.002594	0.041351	0.075531	0.000153	0.040894	-0.000458	0.034943	-0.046692	0.07843	0.016174	0.085602	-0.040436	-0.001221	-0.007782
34.786	0.04303	0.071564	0.053864	0.007477	-0.025024	0.044556	0.056152	-0.018616	0.02594	0.026093	0.004578	0.017853	0.007935	-0.002441	0.007324	0.010529	-0.002441	0.068817	-0.030518	0.12741	0.058594	0.027924	0.028992	-0.017242	0.021667	-0.023651	0.086975	0.001526	0.10483	0.001526	-0.002899	-0.010834
34.787	0.047302	0.054016	0.027618	0.029907	0.044098	0.039825	0.048065	-0.007172	0.045319	0.011292	0.013733	0.010986	0.009766	-0.001678	-0.000916	0.014496	-0.000916	0.075226	0.17777	0.15015	0.043488	0.010529	0.036926	-0.011902	0.019531	-0.006409	0.052795	-0.00885	0.1294	0.019989	-0.001678	-0.005035
34.788	0.031433	0.005646	0.036926	0.027008	0.10605	0.072174	0.036774	-0.001678	0.088806	0.000916	0.010529	0.003052	0.007782	-0.000305	0.001221	0.015411	0.015717	-0.042419	0.29373	0.077362	0.022888	-0.031433	0.046387	-0.014496	0.007324	-0.009918	0.078583	-0.006714	0.062256	0.093079	-0.007477	-0.008545
34.789	0.023651	0.032959	-0.019531	-0.002136	0.058441	0.10239	0.060425	-0.007935	0.10559	0.029755	0.009918	0.007477	0.00412	-0.00351	-0.005798	0.023956	0.006409	-0.053101	0.10925	-0.046234	0.032043	-0.028992	-0.033569	-0.062408	0.004578	-0.008545	0.10681	-0.008698	0.001526	0.15152	-0.008698	-0.009613
34.79	0.000916	0.028992	-0.035553	-0.006256	-0.012207	0.09613	0.094757	0.002899	0.073547	0.018311	0.005493	-0.001526	0.00351	0.027771	-0.03067	0.02182	0.017548	0.014343	-0.088654	-0.036621	0.049438	-0.036316	-0.080109	-0.087585	-0.001373	-0.005798	0.11215	-0.005341	-0.16388	0.10605	-0.005341	-0.015869
34.791	-0.02182	0.059967	-0.025177	0.001221	-0.081787	0.10239	0.03006	0.00061	0.1181	0.022278	0.010986	0.019226	-0.031433	0.031738	-0.028687	0.03006	0.016022	0.01709	0.018921	-0.029297	-0.027313	0.011139	-0.083313	-0.041351	-0.01709	-0.001221	0.096588	-0.009308	0.10132	0.018005	-0.007324	-0.012817
34.792	-0.026703	0.061035	0.02243	0.005798	-0.096893	0.077972	0.00351	0.008087	0.28122	0.010071	0.008392	0.00473	0.001221	0.015411	-0.012817	0.031738	0.016174	0.056152	0.074463	-0.072327	-0.15823	0.087585	-0.042877	-0.11444	-0.037079	0.002289	0.052185	-0.005188	0.29053	-0.040436	-0.000458	-0.013123
34.793	-0.021667	0.039063	-0.040131	0.029907	-0.052032	0.044708	0.033112	0.008087	0.31448	0.010529	-0.001984	0.004272	0.056763	0.015564	-0.003052	0.017395	0.011597	0.059662	0.073547	-0.13718	-0.18829	0.10315	-0.053101	-0.084839	-0.025177	0.00061	0.077209	-0.003357	-0.21286	-0.086212	-0.007782	-0.010376
34.794	-0.018616	0.064697	-0.016937	0.012512	0.018616	0.032654	0.060425	-0.001221	0.30411	0.024414	0.008698	-0.000458	0.027618	0.018158	-0.010681	0.017395	-0.005493	0.06134	0.085907	-0.19287	0.088348	0.030823	-0.022583	-0.023041	-0.018311	-0.001526	0.10529	-0.002594	-0.25589	-0.12344	-0.001373	-0.016327
34.795	-0.025635	0.050507	-0.081482	0.017853	-0.037079	-0.016632	0.033569	0.009766	0.1178	0.013123	0.002594	0.012207	-0.002136	0.003357	-0.004883	0.021057	0.003204	0.071869	-0.012665	-0.28686	0.18585	-0.053253	-0.079193	-0.059052	-0.007324	0.005493	0.10864	-0.005341	-0.17151	-0.16617	-0.007324	-0.019684
34.796	-0.013275	0.045013	-0.046234	0.019379	-0.034332	-0.067749	0.002289	0.007629	-0.080872	-0.014496	0.009155	-0.006256	0.030823	0.008392	-0.009766	0.027313	0.010529	0.08255	0.046997	-0.17014	0.14358	-0.10696	-0.051575	-0.020294	0.022888	0.002747	0.075531	-0.004578	-0.18433	-0.19089	-0.014343	-0.017548
34.797	0.001373	0.060272	0.02655	0.01236	0.012207	-0.10483	0.010834	-0.00473	-0.18402	-0.018005	0.001221	-0.000763	0.063324	-0.001831	-0.006714	0.023956	0.002136	0.077515	0.05127	0.044098	0.061646	-0.066833	-0.024109	0.045166	0.030212	0.010834	0.05249	-0.009155	-0.32333	-0.20355	-0.012054	-0.0177
34.798	0.013275	0.036926	0.0737	0.004883	0.060577	-0.084991	0.017548	0.000153	-0.28992	0.029449	0.00473	-0.002594	0.048981	0.03479	0.00824	0.028076	-0.009155	0.054932	0.071259	0.21118	-0.02243	0.002747	-0.003662	0.01358	0.050964	0.016785	0.058441	-0.001526	-0.14511	-0.21194	-0.009003	-0.015259
